<svg width="19" height="18" viewBox="0 0 19 18" fill="none" xmlns="http://www.w3.org/2000/svg">
<path d="M9.5 11.25C10.7426 11.25 11.75 10.2426 11.75 9C11.75 7.75736 10.7426 6.75 9.5 6.75C8.25736 6.75 7.25 7.75736 7.25 9C7.25 10.2426 8.25736 11.25 9.5 11.25Z" stroke="#B3B9C4" stroke-width="1.1875" stroke-miterlimit="10" stroke-linecap="round" stroke-linejoin="round"/>
<path d="M1.99988 9.65995V8.33995C1.99988 7.55995 2.63738 6.91495 3.42488 6.91495C4.78238 6.91495 5.33738 5.95495 4.65488 4.77745C4.26488 4.10245 4.49738 3.22495 5.17988 2.83495L6.47738 2.09245C7.06988 1.73995 7.83488 1.94995 8.18738 2.54245L8.26988 2.68495C8.94488 3.86245 10.0549 3.86245 10.7374 2.68495L10.8199 2.54245C11.1724 1.94995 11.9374 1.73995 12.5299 2.09245L13.8274 2.83495C14.5099 3.22495 14.7424 4.10245 14.3524 4.77745C13.6699 5.95495 14.2249 6.91495 15.5824 6.91495C16.3624 6.91495 17.0074 7.55245 17.0074 8.33995V9.65995C17.0074 10.44 16.3699 11.085 15.5824 11.085C14.2249 11.085 13.6699 12.045 14.3524 13.2225C14.7424 13.905 14.5099 14.775 13.8274 15.165L12.5299 15.9075C11.9374 16.26 11.1724 16.05 10.8199 15.4575L10.7374 15.315C10.0624 14.1375 8.95238 14.1375 8.26988 15.315L8.18738 15.4575C7.83488 16.05 7.06988 16.26 6.47738 15.9075L5.17988 15.165C4.49738 14.775 4.26488 13.8975 4.65488 13.2225C5.33738 12.045 4.78238 11.085 3.42488 11.085C2.63738 11.085 1.99988 10.44 1.99988 9.65995Z" stroke="#B3B9C4" stroke-width="1.1875" stroke-miterlimit="10" stroke-linecap="round" stroke-linejoin="round"/>
</svg>
