<svg width="18" height="15" viewBox="0 0 18 15" fill="none" xmlns="http://www.w3.org/2000/svg">
<path d="M13.7369 6.65289C14.8379 6.49907 15.6855 5.56049 15.6879 4.42336C15.6879 3.30271 14.8663 2.37354 13.789 2.19775" stroke="#033492" stroke-width="1.2" stroke-linecap="round" stroke-linejoin="round"/>
<path d="M15.1896 9.28516C16.2558 9.44368 17.0001 9.81488 17.0001 10.58C17.0001 11.1066 16.6496 11.4488 16.083 11.6638" stroke="#033492" stroke-width="1.2" stroke-linecap="round" stroke-linejoin="round"/>
<path fill-rule="evenodd" clip-rule="evenodd" d="M9.00034 9.60986C6.46378 9.60986 4.29736 9.99205 4.29736 11.5184C4.29736 13.044 6.45036 13.4372 9.00034 13.4372C11.5369 13.4372 13.7025 13.0589 13.7025 11.5318C13.7025 10.0046 11.5503 9.60986 9.00034 9.60986Z" stroke="#033492" stroke-width="1.2" stroke-linecap="round" stroke-linejoin="round"/>
<path fill-rule="evenodd" clip-rule="evenodd" d="M9.00003 7.43108C10.6645 7.43108 12.0141 6.08991 12.0141 4.43404C12.0141 2.77897 10.6645 1.43701 9.00003 1.43701C7.33556 1.43701 5.98598 2.77897 5.98598 4.43404C5.97967 6.08363 7.31898 7.42558 8.97793 7.43108H9.00003Z" stroke="#033492" stroke-width="1.2" stroke-linecap="round" stroke-linejoin="round"/>
<path d="M4.26297 6.65289C3.16122 6.49907 2.31438 5.56049 2.31201 4.42336C2.31201 3.30271 3.13359 2.37354 4.21088 2.19775" stroke="#033492" stroke-width="1.2" stroke-linecap="round" stroke-linejoin="round"/>
<path d="M2.81048 9.28503C1.74424 9.44356 1 9.81475 1 10.5799C1 11.1065 1.35042 11.4486 1.91708 11.6637" stroke="#033492" stroke-width="1.2" stroke-linecap="round" stroke-linejoin="round"/>
</svg>
