<svg width="53" height="53" viewBox="0 0 53 53" fill="none" xmlns="http://www.w3.org/2000/svg">
<rect width="53" height="53" fill="#F5F5F5"/>
<g id="revise_web1" clip-path="url(#clip0_97_214)">
<rect width="1024" height="768" transform="translate(-665 -306)" fill="white"/>
<g id="&#231;&#133;&#167;&#231;&#137;&#135;">
<g id="&#232;&#188;&#184;&#229;&#133;&#165;&#230;&#161;&#134;">
<rect x="-167.526" y="-46.7368" width="387.947" height="206.684" rx="10" fill="#0AACDD" fill-opacity="0.04"/>
<rect x="-167.026" y="-46.2368" width="386.947" height="205.684" rx="9.5" stroke="#033492" stroke-opacity="0.9" stroke-linecap="round" stroke-linejoin="round" stroke-dasharray="5 5"/>
</g>
<path id="Vector" d="M15.196 14.2482L26.6199 2.82727L38.0439 14.2482M26.6199 33.2911L26.6199 2.83528M50.5558 33.2911L50.5558 48.523C50.5558 49.1001 50.3265 49.6536 49.9185 50.0616C49.5104 50.4697 48.9569 50.699 48.3798 50.699L4.86007 50.699C4.28296 50.699 3.72949 50.4697 3.32141 50.0616C2.91334 49.6536 2.68408 49.1001 2.68408 48.523L2.68408 33.2911" stroke="#033492" stroke-opacity="0.9" stroke-width="4" stroke-linecap="round" stroke-linejoin="round"/>
</g>
</g>
<defs>
<clipPath id="clip0_97_214">
<rect width="1024" height="768" fill="white" transform="translate(-665 -306)"/>
</clipPath>
</defs>
</svg>
