<svg width="72" height="72" viewBox="0 0 72 72" fill="none" xmlns="http://www.w3.org/2000/svg">
<path d="M36 39.3846C39.0928 39.3846 41.6 36.905 41.6 33.8462C41.6 30.7873 39.0928 28.3077 36 28.3077C32.9072 28.3077 30.4 30.7873 30.4 33.8462C30.4 36.905 32.9072 39.3846 36 39.3846Z" stroke="#043593" stroke-width="1.5" stroke-linecap="round" stroke-linejoin="round"/>
<path d="M50 33.8462C50 46.3077 36 56 36 56C36 56 22 46.3077 22 33.8462C22 30.1739 23.475 26.6521 26.1005 24.0554C28.726 21.4588 32.287 20 36 20C39.713 20 43.274 21.4588 45.8995 24.0554C48.525 26.6521 50 30.1739 50 33.8462Z" stroke="#043593" stroke-width="1.5" stroke-linecap="round" stroke-linejoin="round"/>
<circle cx="36" cy="36" r="35" stroke="#043593" stroke-width="2"/>
</svg>
