<svg width="18" height="18" viewBox="0 0 18 18" fill="none" xmlns="http://www.w3.org/2000/svg">
<path d="M14.7314 3.66362L11.0455 15.2738C11.0108 15.3832 10.9453 15.4777 10.8583 15.544C10.7714 15.6103 10.6674 15.6449 10.5613 15.6429C10.4552 15.6409 10.3524 15.6024 10.2676 15.5328C10.1828 15.4633 10.1204 15.3663 10.0892 15.2557L8.60769 10.0058C8.58356 9.92028 8.5406 9.84249 8.48257 9.77921C8.42454 9.71594 8.3532 9.66911 8.27476 9.64279L3.45997 8.02743C3.35855 7.99341 3.2696 7.9253 3.20582 7.83283C3.14204 7.74037 3.10671 7.62829 3.10487 7.51261C3.10302 7.39693 3.13477 7.28358 3.19556 7.18876C3.25635 7.09394 3.34308 7.0225 3.44335 6.98465L14.0913 2.96573C14.1805 2.93205 14.2767 2.92643 14.3687 2.94951C14.4607 2.97259 14.5449 3.02343 14.6117 3.09623C14.6784 3.16903 14.7251 3.26085 14.7462 3.36118C14.7674 3.46152 14.7622 3.56632 14.7314 3.66362V3.66362Z" stroke="white" stroke-width="1.5" stroke-linecap="round" stroke-linejoin="round"/>
</svg>
