<svg width="19" height="22" viewBox="0 0 19 22" fill="none" xmlns="http://www.w3.org/2000/svg">
<path id="password" d="M9.6081 15.4V17.8M9.6081 15.4C10.6391 15.4 11.4749 14.5046 11.4749 13.4C11.4749 12.2954 10.6391 11.4 9.6081 11.4C8.57708 11.4 7.74127 12.2954 7.74127 13.4C7.74127 14.5046 8.57708 15.4 9.6081 15.4ZM6.24781 8.2V4.6C6.24781 3.64522 6.60184 2.72955 7.23201 2.05442C7.86219 1.37928 8.7169 1 9.6081 1C10.4993 1 11.354 1.37928 11.9842 2.05442C12.6144 2.72955 12.9684 3.64522 12.9684 4.6M2.14078 8.2H17.0754C17.4878 8.2 17.8222 8.55817 17.8222 9V20.2C17.8222 20.6418 17.4878 21 17.0754 21H2.14078C1.72837 21 1.39404 20.6418 1.39404 20.2V9C1.39404 8.55817 1.72837 8.2 2.14078 8.2Z" stroke="#B9B9B9" stroke-opacity="0.6" stroke-width="2" stroke-linecap="round" stroke-linejoin="round"/>
</svg>
