<svg width="21" height="21" viewBox="0 0 21 21" fill="none" xmlns="http://www.w3.org/2000/svg">
<path id="user" d="M0.544444 19.5319C0.286027 20.02 0.47222 20.6252 0.960317 20.8836C1.44841 21.142 2.05358 20.9558 2.312 20.4677L0.544444 19.5319ZM18.9053 20.4679C19.1637 20.956 19.7688 21.1422 20.257 20.8838C20.7451 20.6254 20.9313 20.0202 20.6729 19.5321L18.9053 20.4679ZM2.312 20.4677C3.16471 18.8571 4.38499 17.5307 5.84171 16.6132L4.77587 14.9209C3.00967 16.0333 1.55327 17.6264 0.544444 19.5319L2.312 20.4677ZM5.84171 16.6132C7.29756 15.6963 8.94132 15.2179 10.6087 15.2179L10.6087 13.2179C8.55488 13.2179 6.54295 13.808 4.77587 14.9209L5.84171 16.6132ZM10.6087 15.2179C12.2761 15.2179 13.9198 15.6964 15.3756 16.6134L16.4415 14.921C14.6745 13.8081 12.6625 13.2179 10.6087 13.2179L10.6087 15.2179ZM15.3756 16.6134C16.8323 17.5308 18.0526 18.8573 18.9053 20.4679L20.6729 19.5321C19.6641 17.6266 18.2077 16.0334 16.4415 14.921L15.3756 16.6134ZM15.6651 7.60896C15.6651 10.7907 13.3209 13.2179 10.6087 13.2179V15.2179C14.5863 15.2179 17.6651 11.7273 17.6651 7.60896H15.6651ZM10.6087 13.2179C7.89645 13.2179 5.55213 10.7906 5.55213 7.60896H3.55213C3.55213 11.7273 6.63116 15.2179 10.6087 15.2179V13.2179ZM5.55213 7.60896C5.55213 4.42725 7.89637 2 10.6086 2V0C6.63103 0 3.55213 3.49062 3.55213 7.60896H5.55213ZM10.6086 2C13.3208 2 15.6651 4.42725 15.6651 7.60896H17.6651C17.6651 3.49062 14.5862 0 10.6086 0V2Z" fill="#B9B9B9" fill-opacity="0.6"/>
</svg>
