<svg width="24" height="19" viewBox="0 0 24 19" fill="none" xmlns="http://www.w3.org/2000/svg">
<path d="M10.3543 17.5H5.80289M8.07861 14.5V17.5M19.4572 7H16.4229M10.3543 14.5H2.76861C2.36624 14.5 1.98035 14.342 1.69583 14.0607C1.41131 13.7794 1.25146 13.3978 1.25146 13V6.25C1.25146 5.85218 1.41131 5.47064 1.69583 5.18934C1.98035 4.90804 2.36624 4.75 2.76861 4.75H10.3543M19.4572 4H16.4229M14.1472 1H21.7329C22.1518 1 22.4915 1.33579 22.4915 1.75V16.75C22.4915 17.1642 22.1518 17.5 21.7329 17.5H14.1472C13.7282 17.5 13.3886 17.1642 13.3886 16.75V1.75C13.3886 1.33579 13.7282 1 14.1472 1Z" stroke="#5E718D" stroke-width="1.5" stroke-linecap="round" stroke-linejoin="round"/>
</svg>
