<svg width="18" height="20" viewBox="0 0 18 20" fill="none" xmlns="http://www.w3.org/2000/svg">
<path d="M10.7614 8.79788V14.6705M6.61511 8.79788V14.6705M16.2894 4.39344L1.08643 4.39345M14.9076 4.39344V18.3408C14.9076 18.5355 14.8348 18.7222 14.7052 18.8599C14.5756 18.9976 14.3999 19.0749 14.2166 19.0749H3.1599C2.97662 19.0749 2.80085 18.9976 2.67125 18.8599C2.54166 18.7222 2.46885 18.5355 2.46885 18.3408V4.39344M12.1435 4.39344V2.9253C12.1435 2.53592 11.9979 2.16249 11.7387 1.88716C11.4795 1.61183 11.1279 1.45715 10.7614 1.45715H6.61511C6.24856 1.45715 5.89702 1.61183 5.63783 1.88716C5.37864 2.16249 5.23303 2.53592 5.23303 2.9253V4.39344" stroke="#DD614A" stroke-width="1.5" stroke-linecap="round" stroke-linejoin="round"/>
</svg>
