<svg width="16" height="20" viewBox="0 0 16 20" fill="none" xmlns="http://www.w3.org/2000/svg">
<path d="M10.3848 1.19116H2.09156C1.90828 1.19116 1.73251 1.2685 1.60291 1.40617C1.47332 1.54383 1.40051 1.73055 1.40051 1.92523V18.0748C1.40051 18.2695 1.47332 18.4562 1.60291 18.5939C1.73251 18.7316 1.90828 18.8089 2.09156 18.8089H14.531C14.6218 18.8089 14.7116 18.7899 14.7955 18.753C14.8793 18.7161 14.9555 18.6621 15.0197 18.5939C15.0838 18.5257 15.1347 18.4448 15.1695 18.3558C15.2042 18.2667 15.2221 18.1712 15.2221 18.0748V6.32967M10.3848 1.19116L15.2221 6.32967M10.3848 1.19116V6.32967H15.2221M5.89297 12.5693L8.31163 15.1385M8.31163 15.1385L10.7303 12.5693M8.31163 15.1385V9.26596" stroke="#5E718D" stroke-width="1.5" stroke-linecap="round" stroke-linejoin="round"/>
</svg>
