<svg width="23" height="24" viewBox="0 0 23 24" fill="none" xmlns="http://www.w3.org/2000/svg">
<path d="M13.1296 3.19116H4.83643C4.65315 3.19116 4.47738 3.2685 4.34779 3.40617C4.21819 3.54383 4.14539 3.73055 4.14539 3.92523V20.0748C4.14539 20.2695 4.21819 20.4562 4.34779 20.5939C4.47738 20.7316 4.65315 20.8089 4.83643 20.8089H17.2759C17.3666 20.8089 17.4565 20.7899 17.5403 20.753C17.6242 20.7161 17.7004 20.6621 17.7645 20.5939C17.8287 20.5257 17.8796 20.4448 17.9143 20.3558C17.9491 20.2667 17.9669 20.1712 17.9669 20.0748V8.32967M13.1296 3.19116L17.9669 8.32967M13.1296 3.19116V8.32967H17.9669M8.63784 14.5693L11.0565 17.1385M11.0565 17.1385L13.4752 14.5693M11.0565 17.1385V11.266" stroke="#5E718D" stroke-width="1.5" stroke-linecap="round" stroke-linejoin="round"/>
</svg>
